<svg xmlns="http://www.w3.org/2000/svg" xmlns:v="https://svgstorm.com"
viewBox = "50 230 550 200"
width="100"
height="100">
<g fill="None" fill-opacity="0.0" stroke="#F1F1F1" stroke-opacity="1.00" stroke-width="0.3"><path d="
M 0.00 640.00 
L 640.00 640.00
L 640.00 0.00
L 0.00 0.00
L 0.00 640.00
M 189.00 277.00 
C 203.25 281.32 194.48 306.62 179.98 300.02 C 165.47 293.43 173.75 272.37 189.00 277.00
M 119.00 324.00 
C 117.80 329.93 120.60 340.54 119.00 346.00 C 117.40 351.46 122.41 364.91 118.00 368.00
C 113.30 371.29 102.27 365.53 97.00 368.00
C 97.00 353.33 97.00 338.67 97.00 324.00
C 84.50 327.92 86.82 315.07 87.00 307.00
C 90.33 307.00 93.67 307.00 97.00 307.00
C 93.57 286.48 115.09 274.16 133.00 280.00
C 133.00 285.33 133.00 290.67 133.00 296.00
C 125.35 294.32 116.05 297.48 119.00 307.00
C 123.33 307.00 127.67 307.00 132.00 307.00
C 132.00 312.67 132.00 318.33 132.00 324.00
C 127.67 324.00 123.33 324.00 119.00 324.00
M 380.00 321.00 
C 377.26 324.91 366.08 320.14 362.00 322.00
C 361.33 337.17 363.33 353.66 361.00 368.00
C 355.07 372.15 343.88 367.49 346.00 360.00 C 348.12 352.51 345.11 344.47 346.00 337.00 C 346.89 329.53 345.64 320.23 346.00 313.00 C 346.36 305.77 345.24 298.46 348.77 292.77 C 352.30 287.08 354.01 283.85 360.23 281.23 C 366.45 278.61 374.84 280.15 381.00 282.00
C 381.00 286.00 381.00 290.00 381.00 294.00
C 371.68 290.86 358.74 294.84 361.00 307.00
C 367.33 307.00 373.67 307.00 380.00 307.00
C 380.00 311.67 380.00 316.33 380.00 321.00
M 401.00 280.00 
C 412.46 282.42 406.38 302.74 395.00 298.00 C 383.62 293.26 390.08 277.69 401.00 280.00
M 162.00 282.00 
C 165.34 286.78 160.55 296.86 162.00 303.00 C 163.45 309.14 161.30 318.32 162.00 325.00 C 162.70 331.68 161.65 339.05 162.00 346.00 C 162.35 352.95 161.74 360.95 162.00 368.00
C 154.67 368.00 147.33 368.00 140.00 368.00
C 140.00 360.00 140.00 352.00 140.00 344.00
C 140.00 323.00 140.00 302.00 140.00 281.00
C 147.16 281.66 155.66 279.67 162.00 282.00
M 294.00 352.00 
C 290.57 356.56 292.45 362.50 292.00 368.00
C 285.00 368.00 278.00 368.00 271.00 368.00
C 267.09 364.24 270.89 352.73 270.00 347.00 C 269.11 341.27 269.92 331.01 270.00 325.00 C 270.08 318.99 268.91 308.42 270.00 303.00 C 271.09 297.58 266.86 283.90 271.00 281.00
C 275.05 278.17 282.54 281.99 288.00 281.00 C 293.46 280.01 291.97 290.43 292.00 295.00 C 292.03 299.57 291.79 307.90 292.00 313.00 C 292.21 318.10 291.01 325.63 293.00 330.00
C 297.94 322.39 301.71 318.94 307.25 311.25 C 312.80 303.57 328.43 308.22 337.00 307.00
C 329.79 313.58 329.02 319.44 320.75 325.75 C 312.48 332.07 317.96 339.53 323.75 346.25 C 329.55 352.97 332.93 360.85 338.00 368.00
C 330.46 366.15 316.44 371.39 311.08 365.92 C 305.73 360.44 304.18 353.12 300.00 347.00
C 297.59 348.11 296.38 350.96 294.00 352.00
M 549.00 281.00 
C 549.00 310.00 549.00 339.00 549.00 368.00
C 544.67 368.00 540.33 368.00 536.00 368.00
C 535.79 364.99 534.44 362.23 535.00 359.00
C 516.06 381.56 485.76 362.79 486.00 337.00 C 486.24 311.21 515.55 293.00 535.00 315.00
C 535.00 303.67 535.00 292.33 535.00 281.00
C 539.67 281.00 544.33 281.00 549.00 281.00
M 241.00 369.00 
C 237.50 369.63 234.45 369.67 231.00 369.00
C 207.28 367.12 196.05 338.18 208.31 319.31 C 220.56 300.43 251.43 299.61 264.00 318.00
C 258.36 321.02 254.08 326.13 249.00 330.00
C 242.27 318.35 223.37 323.59 223.02 337.02 C 222.68 350.46 242.43 355.66 249.00 344.00
C 254.29 347.65 258.53 352.73 264.00 356.00
C 258.42 363.33 250.09 368.51 241.00 369.00
M 434.00 332.00 
C 433.55 336.96 435.04 345.43 434.00 350.00 C 432.96 354.57 436.66 365.44 433.00 368.00
C 424.86 373.70 416.61 364.97 419.00 357.00 C 421.39 349.03 417.75 340.15 419.00 332.00 C 420.25 323.85 418.06 315.19 419.00 307.00
C 423.67 307.00 428.33 307.00 433.00 307.00
C 433.59 309.84 431.78 313.98 434.00 316.00
C 441.11 303.20 463.55 299.53 471.92 314.08 C 480.28 328.63 474.10 351.17 476.00 368.00
C 471.33 368.00 466.67 368.00 462.00 368.00
C 460.46 354.07 465.04 337.08 459.69 324.31 C 454.35 311.53 432.66 319.23 434.00 332.00
M 194.00 307.00 
C 194.00 327.33 194.00 347.67 194.00 368.00
C 187.00 368.00 180.00 368.00 173.00 368.00
C 173.00 347.67 173.00 327.33 173.00 307.00
C 180.00 307.00 187.00 307.00 194.00 307.00
M 405.00 307.00 
C 405.00 327.33 405.00 347.67 405.00 368.00
C 400.00 368.00 395.00 368.00 390.00 368.00
C 390.00 347.67 390.00 327.33 390.00 307.00
C 395.00 307.00 400.00 307.00 405.00 307.00 Z"/>
</g>
<g fill="None" fill-opacity="0.0" stroke="#010101" stroke-opacity="1.00" stroke-width="0.3"><path d="
M 189.00 277.00 
C 173.75 272.37 165.47 293.43 179.98 300.02 C 194.48 306.62 203.25 281.32 189.00 277.00 Z"/>
</g>
<g fill="None" fill-opacity="0.0" stroke="#000000" stroke-opacity="1.00" stroke-width="0.3"><path d="
M 118.00 368.00 
C 119.20 362.07 116.40 351.46 118.00 346.00 C 119.60 340.54 114.59 327.09 119.00 324.00
C 123.33 324.00 127.67 324.00 132.00 324.00
C 132.00 318.33 132.00 312.67 132.00 307.00
C 127.67 307.00 123.33 307.00 119.00 307.00
C 116.05 297.48 125.35 294.32 133.00 296.00
C 133.00 290.67 133.00 285.33 133.00 280.00
C 115.09 274.16 93.57 286.48 97.00 307.00
C 93.67 307.00 90.33 307.00 87.00 307.00
C 86.82 315.07 84.50 327.92 97.00 324.00
C 97.00 338.67 97.00 353.33 97.00 368.00
C 102.27 365.53 113.30 371.29 118.00 368.00 Z"/>
</g>
<g fill="None" fill-opacity="0.0" stroke="#000000" stroke-opacity="1.00" stroke-width="0.3"><path d="
M 361.00 368.00 
C 361.00 352.33 361.00 336.67 361.00 321.00
C 367.33 321.00 373.67 321.00 380.00 321.00
C 380.00 316.33 380.00 311.67 380.00 307.00
C 373.67 307.00 367.33 307.00 361.00 307.00
C 358.74 294.84 371.68 290.86 381.00 294.00
C 381.00 290.00 381.00 286.00 381.00 282.00
C 374.84 280.15 366.45 278.61 360.23 281.23 C 354.01 283.85 352.30 287.08 348.77 292.77 C 345.24 298.46 346.36 305.77 346.00 313.00 C 345.64 320.23 346.89 329.53 346.00 337.00 C 345.11 344.47 348.12 352.51 346.00 360.00 C 343.88 367.49 355.07 372.15 361.00 368.00 Z"/>
</g>
<g fill="None" fill-opacity="0.0" stroke="#010101" stroke-opacity="1.00" stroke-width="0.3"><path d="
M 401.00 280.00 
C 390.08 277.69 383.62 293.26 395.00 298.00 C 406.38 302.74 412.46 282.42 401.00 280.00 Z"/>
</g>
<g fill="None" fill-opacity="0.0" stroke="#5D5D5D" stroke-opacity="1.00" stroke-width="0.3"><path d="
M 140.00 344.00 
C 141.92 324.20 140.65 302.54 141.00 282.00
C 148.00 282.00 155.00 282.00 162.00 282.00
C 155.66 279.67 147.16 281.66 140.00 281.00
C 140.00 302.00 140.00 323.00 140.00 344.00 Z"/>
</g>
<g fill="None" fill-opacity="0.0" stroke="#8B8B8A" stroke-opacity="1.00" stroke-width="0.3"><path d="
M 271.00 368.00 
C 270.96 368.00 271.00 367.00 271.00 367.00
C 271.00 338.33 271.00 309.67 271.00 281.00
C 266.86 283.90 271.09 297.58 270.00 303.00 C 268.91 308.42 270.08 318.99 270.00 325.00 C 269.92 331.01 269.11 341.27 270.00 347.00 C 270.89 352.73 267.09 364.24 271.00 368.00 Z"/>
</g>
<g fill="None" fill-opacity="0.0" stroke="#000000" stroke-opacity="1.00" stroke-width="0.3"><path d="
M 271.00 367.00 
C 277.61 366.40 284.37 367.45 291.00 367.00
C 291.94 362.13 288.54 354.74 294.00 352.00
C 296.38 350.96 297.59 348.11 300.00 347.00
C 304.18 353.12 305.73 360.44 311.08 365.92 C 316.44 371.39 330.46 366.15 338.00 368.00
C 332.93 360.85 329.55 352.97 323.75 346.25 C 317.96 339.53 312.48 332.07 320.75 325.75 C 329.02 319.44 329.79 313.58 337.00 307.00
C 328.43 308.22 312.80 303.57 307.25 311.25 C 301.71 318.94 297.94 322.39 293.00 330.00
C 291.01 325.63 292.21 318.10 292.00 313.00 C 291.79 307.90 292.03 299.57 292.00 295.00 C 291.97 290.43 293.46 280.01 288.00 281.00 C 282.54 281.99 275.05 278.17 271.00 281.00
C 271.00 309.67 271.00 338.33 271.00 367.00 Z"/>
</g>
<g fill="None" fill-opacity="0.0" stroke="#000100" stroke-opacity="1.00" stroke-width="0.3"><path d="
M 549.00 281.00 
C 544.33 281.00 539.67 281.00 535.00 281.00
C 535.00 292.33 535.00 303.67 535.00 315.00
C 515.55 293.00 486.24 311.21 486.00 337.00 C 485.76 362.79 516.06 381.56 535.00 359.00
C 534.44 362.23 535.79 364.99 536.00 368.00
C 540.33 368.00 544.67 368.00 549.00 368.00
C 549.00 339.00 549.00 310.00 549.00 281.00
M 522.00 318.00 
C 544.14 323.15 535.53 361.71 513.33 355.67 C 491.13 349.63 499.83 312.84 522.00 318.00 Z"/>
</g>
<g fill="None" fill-opacity="0.0" stroke="#000000" stroke-opacity="1.00" stroke-width="0.3"><path d="
M 140.00 344.00 
C 140.00 352.00 140.00 360.00 140.00 368.00
C 147.33 368.00 154.67 368.00 162.00 368.00
C 161.74 360.95 162.35 352.95 162.00 346.00 C 161.65 339.05 162.70 331.68 162.00 325.00 C 161.30 318.32 163.45 309.14 162.00 303.00 C 160.55 296.86 165.34 286.78 162.00 282.00
C 155.00 282.00 148.00 282.00 141.00 282.00
C 140.65 302.54 141.92 324.20 140.00 344.00 Z"/>
</g>
<g fill="None" fill-opacity="0.0" stroke="#000000" stroke-opacity="1.00" stroke-width="0.3"><path d="
M 231.00 369.00 
C 234.21 369.25 237.79 369.22 241.00 369.00
C 250.09 368.51 258.42 363.33 264.00 356.00
C 258.53 352.73 254.29 347.65 249.00 344.00
C 242.43 355.66 222.68 350.46 223.02 337.02 C 223.37 323.59 242.27 318.35 249.00 330.00
C 254.08 326.13 258.36 321.02 264.00 318.00
C 251.43 299.61 220.56 300.43 208.31 319.31 C 196.05 338.18 207.28 367.12 231.00 369.00 Z"/>
</g>
<g fill="None" fill-opacity="0.0" stroke="#000100" stroke-opacity="1.00" stroke-width="0.3"><path d="
M 433.00 368.00 
C 433.63 356.16 431.72 343.02 434.00 332.00
C 432.66 319.23 454.35 311.53 459.69 324.31 C 465.04 337.08 460.46 354.07 462.00 368.00
C 466.67 368.00 471.33 368.00 476.00 368.00
C 474.10 351.17 480.28 328.63 471.92 314.08 C 463.55 299.53 441.11 303.20 434.00 316.00
C 431.78 313.98 433.59 309.84 433.00 307.00
C 428.33 307.00 423.67 307.00 419.00 307.00
C 418.06 315.19 420.25 323.85 419.00 332.00 C 417.75 340.15 421.39 349.03 419.00 357.00 C 416.61 364.97 424.86 373.70 433.00 368.00 Z"/>
</g>
<g fill="None" fill-opacity="0.0" stroke="#000000" stroke-opacity="1.00" stroke-width="0.3"><path d="
M 194.00 307.00 
C 187.00 307.00 180.00 307.00 173.00 307.00
C 173.00 327.33 173.00 347.67 173.00 368.00
C 180.00 368.00 187.00 368.00 194.00 368.00
C 194.00 347.67 194.00 327.33 194.00 307.00 Z"/>
</g>
<g fill="None" fill-opacity="0.0" stroke="#020202" stroke-opacity="1.00" stroke-width="0.3"><path d="
M 405.00 307.00 
C 400.00 307.00 395.00 307.00 390.00 307.00
C 390.00 327.33 390.00 347.67 390.00 368.00
C 395.00 368.00 400.00 368.00 405.00 368.00
C 405.00 347.67 405.00 327.33 405.00 307.00 Z"/>
</g>
<g fill="None" fill-opacity="0.0" stroke="#EAEBEB" stroke-opacity="1.00" stroke-width="0.3"><path d="
M 522.00 318.00 
C 499.83 312.84 491.13 349.63 513.33 355.67 C 535.53 361.71 544.14 323.15 522.00 318.00 Z"/>
</g>
<g fill="None" fill-opacity="0.0" stroke="#8B8C8C" stroke-opacity="1.00" stroke-width="0.3"><path d="
M 361.00 368.00 
C 363.33 353.66 361.33 337.17 362.00 322.00
C 366.08 320.14 377.26 324.91 380.00 321.00
C 373.67 321.00 367.33 321.00 361.00 321.00
C 361.00 336.67 361.00 352.33 361.00 368.00 Z"/>
</g>
<g fill="None" fill-opacity="0.0" stroke="#787878" stroke-opacity="1.00" stroke-width="0.3"><path d="
M 118.00 368.00 
C 122.41 364.91 117.40 351.46 119.00 346.00 C 120.60 340.54 117.80 329.93 119.00 324.00
C 114.59 327.09 119.60 340.54 118.00 346.00 C 116.40 351.46 119.20 362.07 118.00 368.00 Z"/>
</g>
<g fill="None" fill-opacity="0.0" stroke="#7E7F7E" stroke-opacity="1.00" stroke-width="0.3"><path d="
M 433.00 368.00 
C 436.66 365.44 432.96 354.57 434.00 350.00 C 435.04 345.43 433.55 336.96 434.00 332.00
C 431.72 343.02 433.63 356.16 433.00 368.00 Z"/>
</g>
<g fill="None" fill-opacity="0.0" stroke="#505050" stroke-opacity="1.00" stroke-width="0.3"><path d="
M 271.00 367.00 
C 271.00 367.00 270.96 368.00 271.00 368.00
C 278.00 368.00 285.00 368.00 292.00 368.00
C 292.45 362.50 290.57 356.56 294.00 352.00
C 288.54 354.74 291.94 362.13 291.00 367.00
C 284.37 367.45 277.61 366.40 271.00 367.00 Z"/>
</g>
<g fill="None" fill-opacity="0.0" stroke="#757575" stroke-opacity="1.00" stroke-width="0.3"><path d="
M 241.00 369.00 
C 237.79 369.22 234.21 369.25 231.00 369.00
C 234.45 369.67 237.50 369.63 241.00 369.00 Z"/>
</g>
<g fill="#F1F1F1" fill-opacity="1.00" stroke="None">
<path d="
M 0.00 640.00 
L 640.00 640.00
L 640.00 0.00
L 0.00 0.00
L 0.00 640.00
M 189.00 277.00 
C 203.25 281.32 194.48 306.62 179.98 300.02 C 165.47 293.43 173.75 272.37 189.00 277.00
M 119.00 324.00 
C 117.80 329.93 120.60 340.54 119.00 346.00 C 117.40 351.46 122.41 364.91 118.00 368.00
C 113.30 371.29 102.27 365.53 97.00 368.00
C 97.00 353.33 97.00 338.67 97.00 324.00
C 84.50 327.92 86.82 315.07 87.00 307.00
C 90.33 307.00 93.67 307.00 97.00 307.00
C 93.57 286.48 115.09 274.16 133.00 280.00
C 133.00 285.33 133.00 290.67 133.00 296.00
C 125.35 294.32 116.05 297.48 119.00 307.00
C 123.33 307.00 127.67 307.00 132.00 307.00
C 132.00 312.67 132.00 318.33 132.00 324.00
C 127.67 324.00 123.33 324.00 119.00 324.00
M 380.00 321.00 
C 377.26 324.91 366.08 320.14 362.00 322.00
C 361.33 337.17 363.33 353.66 361.00 368.00
C 355.07 372.15 343.88 367.49 346.00 360.00 C 348.12 352.51 345.11 344.47 346.00 337.00 C 346.89 329.53 345.64 320.23 346.00 313.00 C 346.36 305.77 345.24 298.46 348.77 292.77 C 352.30 287.08 354.01 283.85 360.23 281.23 C 366.45 278.61 374.84 280.15 381.00 282.00
C 381.00 286.00 381.00 290.00 381.00 294.00
C 371.68 290.86 358.74 294.84 361.00 307.00
C 367.33 307.00 373.67 307.00 380.00 307.00
C 380.00 311.67 380.00 316.33 380.00 321.00
M 401.00 280.00 
C 412.46 282.42 406.38 302.74 395.00 298.00 C 383.62 293.26 390.08 277.69 401.00 280.00
M 162.00 282.00 
C 165.34 286.78 160.55 296.86 162.00 303.00 C 163.45 309.14 161.30 318.32 162.00 325.00 C 162.70 331.68 161.65 339.05 162.00 346.00 C 162.35 352.95 161.74 360.95 162.00 368.00
C 154.67 368.00 147.33 368.00 140.00 368.00
C 140.00 360.00 140.00 352.00 140.00 344.00
C 140.00 323.00 140.00 302.00 140.00 281.00
C 147.16 281.66 155.66 279.67 162.00 282.00
M 294.00 352.00 
C 290.57 356.56 292.45 362.50 292.00 368.00
C 285.00 368.00 278.00 368.00 271.00 368.00
C 267.09 364.24 270.89 352.73 270.00 347.00 C 269.11 341.27 269.92 331.01 270.00 325.00 C 270.08 318.99 268.91 308.42 270.00 303.00 C 271.09 297.58 266.86 283.90 271.00 281.00
C 275.05 278.17 282.54 281.99 288.00 281.00 C 293.46 280.01 291.97 290.43 292.00 295.00 C 292.03 299.57 291.79 307.90 292.00 313.00 C 292.21 318.10 291.01 325.63 293.00 330.00
C 297.94 322.39 301.71 318.94 307.25 311.25 C 312.80 303.57 328.43 308.22 337.00 307.00
C 329.79 313.58 329.02 319.44 320.75 325.75 C 312.48 332.07 317.96 339.53 323.75 346.25 C 329.55 352.97 332.93 360.85 338.00 368.00
C 330.46 366.15 316.44 371.39 311.08 365.92 C 305.73 360.44 304.18 353.12 300.00 347.00
C 297.59 348.11 296.38 350.96 294.00 352.00
M 549.00 281.00 
C 549.00 310.00 549.00 339.00 549.00 368.00
C 544.67 368.00 540.33 368.00 536.00 368.00
C 535.79 364.99 534.44 362.23 535.00 359.00
C 516.06 381.56 485.76 362.79 486.00 337.00 C 486.24 311.21 515.55 293.00 535.00 315.00
C 535.00 303.67 535.00 292.33 535.00 281.00
C 539.67 281.00 544.33 281.00 549.00 281.00
M 241.00 369.00 
C 237.50 369.63 234.45 369.67 231.00 369.00
C 207.28 367.12 196.05 338.18 208.31 319.31 C 220.56 300.43 251.43 299.61 264.00 318.00
C 258.36 321.02 254.08 326.13 249.00 330.00
C 242.27 318.35 223.37 323.59 223.02 337.02 C 222.68 350.46 242.43 355.66 249.00 344.00
C 254.29 347.65 258.53 352.73 264.00 356.00
C 258.42 363.33 250.09 368.51 241.00 369.00
M 434.00 332.00 
C 433.55 336.96 435.04 345.43 434.00 350.00 C 432.96 354.57 436.66 365.44 433.00 368.00
C 424.86 373.70 416.61 364.97 419.00 357.00 C 421.39 349.03 417.75 340.15 419.00 332.00 C 420.25 323.85 418.06 315.19 419.00 307.00
C 423.67 307.00 428.33 307.00 433.00 307.00
C 433.59 309.84 431.78 313.98 434.00 316.00
C 441.11 303.20 463.55 299.53 471.92 314.08 C 480.28 328.63 474.10 351.17 476.00 368.00
C 471.33 368.00 466.67 368.00 462.00 368.00
C 460.46 354.07 465.04 337.08 459.69 324.31 C 454.35 311.53 432.66 319.23 434.00 332.00
M 194.00 307.00 
C 194.00 327.33 194.00 347.67 194.00 368.00
C 187.00 368.00 180.00 368.00 173.00 368.00
C 173.00 347.67 173.00 327.33 173.00 307.00
C 180.00 307.00 187.00 307.00 194.00 307.00
M 405.00 307.00 
C 405.00 327.33 405.00 347.67 405.00 368.00
C 400.00 368.00 395.00 368.00 390.00 368.00
C 390.00 347.67 390.00 327.33 390.00 307.00
C 395.00 307.00 400.00 307.00 405.00 307.00 Z"/>
</g>
<g fill="#010101" fill-opacity="1.00" stroke="None">
<path d="
M 189.00 277.00 
C 173.75 272.37 165.47 293.43 179.98 300.02 C 194.48 306.62 203.25 281.32 189.00 277.00 Z"/>
</g>
<g fill="#000000" fill-opacity="1.00" stroke="None">
<path d="
M 118.00 368.00 
C 119.20 362.07 116.40 351.46 118.00 346.00 C 119.60 340.54 114.59 327.09 119.00 324.00
C 123.33 324.00 127.67 324.00 132.00 324.00
C 132.00 318.33 132.00 312.67 132.00 307.00
C 127.67 307.00 123.33 307.00 119.00 307.00
C 116.05 297.48 125.35 294.32 133.00 296.00
C 133.00 290.67 133.00 285.33 133.00 280.00
C 115.09 274.16 93.57 286.48 97.00 307.00
C 93.67 307.00 90.33 307.00 87.00 307.00
C 86.82 315.07 84.50 327.92 97.00 324.00
C 97.00 338.67 97.00 353.33 97.00 368.00
C 102.27 365.53 113.30 371.29 118.00 368.00 Z"/>
</g>
<g fill="#000000" fill-opacity="1.00" stroke="None">
<path d="
M 361.00 368.00 
C 361.00 352.33 361.00 336.67 361.00 321.00
C 367.33 321.00 373.67 321.00 380.00 321.00
C 380.00 316.33 380.00 311.67 380.00 307.00
C 373.67 307.00 367.33 307.00 361.00 307.00
C 358.74 294.84 371.68 290.86 381.00 294.00
C 381.00 290.00 381.00 286.00 381.00 282.00
C 374.84 280.15 366.45 278.61 360.23 281.23 C 354.01 283.85 352.30 287.08 348.77 292.77 C 345.24 298.46 346.36 305.77 346.00 313.00 C 345.64 320.23 346.89 329.53 346.00 337.00 C 345.11 344.47 348.12 352.51 346.00 360.00 C 343.88 367.49 355.07 372.15 361.00 368.00 Z"/>
</g>
<g fill="#010101" fill-opacity="1.00" stroke="None">
<path d="
M 401.00 280.00 
C 390.08 277.69 383.62 293.26 395.00 298.00 C 406.38 302.74 412.46 282.42 401.00 280.00 Z"/>
</g>
<g fill="#5D5D5D" fill-opacity="1.00" stroke="None">
<path d="
M 140.00 344.00 
C 141.92 324.20 140.65 302.54 141.00 282.00
C 148.00 282.00 155.00 282.00 162.00 282.00
C 155.66 279.67 147.16 281.66 140.00 281.00
C 140.00 302.00 140.00 323.00 140.00 344.00 Z"/>
</g>
<g fill="#8B8B8A" fill-opacity="1.00" stroke="None">
<path d="
M 271.00 368.00 
C 270.96 368.00 271.00 367.00 271.00 367.00
C 271.00 338.33 271.00 309.67 271.00 281.00
C 266.86 283.90 271.09 297.58 270.00 303.00 C 268.91 308.42 270.08 318.99 270.00 325.00 C 269.92 331.01 269.11 341.27 270.00 347.00 C 270.89 352.73 267.09 364.24 271.00 368.00 Z"/>
</g>
<g fill="#000000" fill-opacity="1.00" stroke="None">
<path d="
M 271.00 367.00 
C 277.61 366.40 284.37 367.45 291.00 367.00
C 291.94 362.13 288.54 354.74 294.00 352.00
C 296.38 350.96 297.59 348.11 300.00 347.00
C 304.18 353.12 305.73 360.44 311.08 365.92 C 316.44 371.39 330.46 366.15 338.00 368.00
C 332.93 360.85 329.55 352.97 323.75 346.25 C 317.96 339.53 312.48 332.07 320.75 325.75 C 329.02 319.44 329.79 313.58 337.00 307.00
C 328.43 308.22 312.80 303.57 307.25 311.25 C 301.71 318.94 297.94 322.39 293.00 330.00
C 291.01 325.63 292.21 318.10 292.00 313.00 C 291.79 307.90 292.03 299.57 292.00 295.00 C 291.97 290.43 293.46 280.01 288.00 281.00 C 282.54 281.99 275.05 278.17 271.00 281.00
C 271.00 309.67 271.00 338.33 271.00 367.00 Z"/>
</g>
<g fill="#000100" fill-opacity="1.00" stroke="None">
<path d="
M 549.00 281.00 
C 544.33 281.00 539.67 281.00 535.00 281.00
C 535.00 292.33 535.00 303.67 535.00 315.00
C 515.55 293.00 486.24 311.21 486.00 337.00 C 485.76 362.79 516.06 381.56 535.00 359.00
C 534.44 362.23 535.79 364.99 536.00 368.00
C 540.33 368.00 544.67 368.00 549.00 368.00
C 549.00 339.00 549.00 310.00 549.00 281.00
M 522.00 318.00 
C 544.14 323.15 535.53 361.71 513.33 355.67 C 491.13 349.63 499.83 312.84 522.00 318.00 Z"/>
</g>
<g fill="#000000" fill-opacity="1.00" stroke="None">
<path d="
M 140.00 344.00 
C 140.00 352.00 140.00 360.00 140.00 368.00
C 147.33 368.00 154.67 368.00 162.00 368.00
C 161.74 360.95 162.35 352.95 162.00 346.00 C 161.65 339.05 162.70 331.68 162.00 325.00 C 161.30 318.32 163.45 309.14 162.00 303.00 C 160.55 296.86 165.34 286.78 162.00 282.00
C 155.00 282.00 148.00 282.00 141.00 282.00
C 140.65 302.54 141.92 324.20 140.00 344.00 Z"/>
</g>
<g fill="#000000" fill-opacity="1.00" stroke="None">
<path d="
M 231.00 369.00 
C 234.21 369.25 237.79 369.22 241.00 369.00
C 250.09 368.51 258.42 363.33 264.00 356.00
C 258.53 352.73 254.29 347.65 249.00 344.00
C 242.43 355.66 222.68 350.46 223.02 337.02 C 223.37 323.59 242.27 318.35 249.00 330.00
C 254.08 326.13 258.36 321.02 264.00 318.00
C 251.43 299.61 220.56 300.43 208.31 319.31 C 196.05 338.18 207.28 367.12 231.00 369.00 Z"/>
</g>
<g fill="#000100" fill-opacity="1.00" stroke="None">
<path d="
M 433.00 368.00 
C 433.63 356.16 431.72 343.02 434.00 332.00
C 432.66 319.23 454.35 311.53 459.69 324.31 C 465.04 337.08 460.46 354.07 462.00 368.00
C 466.67 368.00 471.33 368.00 476.00 368.00
C 474.10 351.17 480.28 328.63 471.92 314.08 C 463.55 299.53 441.11 303.20 434.00 316.00
C 431.78 313.98 433.59 309.84 433.00 307.00
C 428.33 307.00 423.67 307.00 419.00 307.00
C 418.06 315.19 420.25 323.85 419.00 332.00 C 417.75 340.15 421.39 349.03 419.00 357.00 C 416.61 364.97 424.86 373.70 433.00 368.00 Z"/>
</g>
<g fill="#000000" fill-opacity="1.00" stroke="None">
<path d="
M 194.00 307.00 
C 187.00 307.00 180.00 307.00 173.00 307.00
C 173.00 327.33 173.00 347.67 173.00 368.00
C 180.00 368.00 187.00 368.00 194.00 368.00
C 194.00 347.67 194.00 327.33 194.00 307.00 Z"/>
</g>
<g fill="#020202" fill-opacity="1.00" stroke="None">
<path d="
M 405.00 307.00 
C 400.00 307.00 395.00 307.00 390.00 307.00
C 390.00 327.33 390.00 347.67 390.00 368.00
C 395.00 368.00 400.00 368.00 405.00 368.00
C 405.00 347.67 405.00 327.33 405.00 307.00 Z"/>
</g>
<g fill="#EAEBEB" fill-opacity="1.00" stroke="None">
<path d="
M 522.00 318.00 
C 499.83 312.84 491.13 349.63 513.33 355.67 C 535.53 361.71 544.14 323.15 522.00 318.00 Z"/>
</g>
<g fill="#8B8C8C" fill-opacity="1.00" stroke="None">
<path d="
M 361.00 368.00 
C 363.33 353.66 361.33 337.17 362.00 322.00
C 366.08 320.14 377.26 324.91 380.00 321.00
C 373.67 321.00 367.33 321.00 361.00 321.00
C 361.00 336.67 361.00 352.33 361.00 368.00 Z"/>
</g>
<g fill="#787878" fill-opacity="1.00" stroke="None">
<path d="
M 118.00 368.00 
C 122.41 364.91 117.40 351.46 119.00 346.00 C 120.60 340.54 117.80 329.93 119.00 324.00
C 114.59 327.09 119.60 340.54 118.00 346.00 C 116.40 351.46 119.20 362.07 118.00 368.00 Z"/>
</g>
<g fill="#7E7F7E" fill-opacity="1.00" stroke="None">
<path d="
M 433.00 368.00 
C 436.66 365.44 432.96 354.57 434.00 350.00 C 435.04 345.43 433.55 336.96 434.00 332.00
C 431.72 343.02 433.63 356.16 433.00 368.00 Z"/>
</g>
<g fill="#505050" fill-opacity="1.00" stroke="None">
<path d="
M 271.00 367.00 
C 271.00 367.00 270.96 368.00 271.00 368.00
C 278.00 368.00 285.00 368.00 292.00 368.00
C 292.45 362.50 290.57 356.56 294.00 352.00
C 288.54 354.74 291.94 362.13 291.00 367.00
C 284.37 367.45 277.61 366.40 271.00 367.00 Z"/>
</g>
<g fill="#757575" fill-opacity="1.00" stroke="None">
<path d="
M 241.00 369.00 
C 237.79 369.22 234.21 369.25 231.00 369.00
C 234.45 369.67 237.50 369.63 241.00 369.00 Z"/>
</g>
</svg>