<svg xmlns="http://www.w3.org/2000/svg" xmlns:v="https://svgstorm.com"
viewBox = "0 0 640 640"
width="100"
height="100">
<g fill="None" fill-opacity="0.0" stroke="#000000" stroke-opacity="1.00" stroke-width="0.3"><path d="
M 0.00 640.00 
L 640.00 640.00
L 640.00 0.00
L 0.00 0.00
L 0.00 640.00
M 194.00 320.00 
C 193.16 322.34 191.32 324.92 189.00 326.00
C 186.48 327.18 183.17 327.18 180.00 327.00
C 178.53 339.12 186.31 367.56 167.00 364.00
C 155.18 358.47 165.53 335.68 162.00 326.00
C 160.67 326.00 159.33 326.00 158.00 326.00
C 154.24 324.92 150.94 323.25 151.00 318.00 C 151.06 312.75 154.62 307.53 158.00 310.00
C 158.48 309.91 159.00 310.00 159.00 310.00
C 161.30 302.01 162.55 290.31 171.23 286.23 C 179.91 282.15 190.68 276.92 195.97 289.03 C 201.26 301.13 181.27 298.67 181.00 308.00
C 188.33 305.33 198.18 312.75 194.00 320.00
M 218.00 358.00 
C 217.76 358.26 217.20 358.68 217.00 359.00
C 218.31 363.37 211.04 367.59 205.93 365.07 C 200.81 362.56 197.92 357.36 199.00 351.00 C 200.08 344.64 198.18 335.04 199.00 329.00 C 199.82 322.96 197.90 312.86 199.00 308.00 C 200.10 303.14 196.05 289.06 201.00 288.00
C 203.30 283.29 207.24 282.77 212.00 283.00
C 219.68 283.38 220.06 294.39 219.00 302.00 C 217.94 309.61 220.76 322.53 219.00 330.00 C 217.24 337.47 222.98 352.61 218.00 358.00
M 355.00 353.00 
C 357.77 366.19 344.52 364.57 338.00 359.00
C 332.73 354.50 334.40 355.33 329.75 349.25 C 325.09 343.18 323.51 350.47 324.00 356.00 C 324.49 361.53 317.56 364.08 315.00 364.00
C 299.57 363.51 305.18 342.12 305.00 330.00 C 304.82 317.88 303.49 299.04 306.00 287.00
C 307.59 279.37 322.98 280.28 322.99 291.01 C 323.01 301.74 323.00 314.12 323.00 325.00
C 333.21 322.85 334.43 306.40 346.00 307.00 C 357.57 307.60 357.92 323.06 346.75 328.75 C 335.58 334.44 353.10 345.88 355.00 353.00
M 243.00 359.00 
C 239.70 366.79 229.11 364.57 226.00 358.00
C 222.58 350.76 225.84 338.20 225.00 330.00 C 224.16 321.80 223.03 310.30 232.00 307.00
C 230.46 304.21 222.85 301.78 226.00 298.00
C 225.66 294.95 224.60 292.20 226.00 289.00
C 229.50 280.98 240.40 281.07 244.30 288.70 C 248.21 296.32 243.13 303.71 236.00 307.00
C 246.86 307.84 245.63 320.12 245.00 329.00 C 244.37 337.88 247.05 351.23 243.00 359.00
M 395.00 332.00 
C 390.08 333.82 383.63 332.72 378.00 333.00
C 373.78 339.03 385.00 362.88 372.92 363.92 C 360.85 364.96 365.00 344.71 365.00 335.00 C 365.00 325.29 363.22 311.27 366.78 300.78 C 370.33 290.29 378.19 288.73 389.00 286.00 C 399.81 283.27 408.29 300.99 393.78 299.22 C 379.26 297.45 376.22 307.26 378.00 320.00
C 387.36 316.95 409.90 322.03 395.00 332.00
M 420.00 286.00 
C 429.60 288.58 423.82 305.82 414.33 301.67 C 404.84 297.52 410.06 283.33 420.00 286.00
M 274.00 325.00 
C 271.36 326.19 267.63 330.26 267.00 333.00
C 265.71 342.56 275.57 348.45 284.00 346.00
C 290.14 343.29 299.95 346.32 299.00 354.00 C 298.05 361.69 288.19 363.49 283.00 365.00
C 279.73 365.95 276.20 365.74 275.00 365.00
C 274.38 364.86 273.07 364.18 272.00 364.00
C 260.51 364.32 249.84 353.29 249.00 341.00
C 248.78 337.70 249.47 334.58 250.00 332.00
C 250.58 329.22 250.78 327.60 252.00 325.00
C 253.47 317.35 263.45 307.47 272.67 306.67 C 281.90 305.87 298.50 306.34 299.97 319.03 C 301.45 331.71 280.35 329.89 274.00 325.00
M 485.00 328.00 
C 486.47 336.23 487.95 351.01 485.00 359.00
C 482.58 365.54 475.41 365.53 473.00 359.00
C 469.92 350.65 472.95 339.23 472.00 330.00
C 470.20 321.86 459.03 313.68 451.77 321.77 C 444.51 329.86 445.40 339.64 447.00 351.00 C 448.60 362.36 436.17 369.03 434.00 356.00 C 431.84 342.96 436.49 334.04 434.00 322.00 C 431.51 309.96 442.22 303.06 448.00 314.00
C 459.17 299.36 484.92 310.42 485.00 328.00
M 423.00 314.00 
C 426.17 324.43 426.15 347.64 423.00 358.00
C 419.42 369.78 408.97 361.82 410.00 352.00 C 411.03 342.18 411.33 330.74 410.00 321.00 C 408.67 311.26 419.32 301.87 423.00 314.00 Z"/>
</g>
<g fill="None" fill-opacity="0.0" stroke="#320C00" stroke-opacity="1.00" stroke-width="0.3"><path d="
M 159.00 310.00 
C 164.18 310.07 161.44 297.05 165.92 292.92 C 170.40 288.79 175.12 284.58 182.00 284.00 C 188.88 283.43 198.64 286.95 194.67 295.67 C 190.70 304.39 181.90 295.99 180.00 306.00
C 180.16 306.97 179.87 308.02 180.00 309.00
C 182.84 309.59 186.98 307.78 189.00 310.00
C 192.55 311.55 194.77 315.62 194.00 320.00
C 198.18 312.75 188.33 305.33 181.00 308.00
C 181.27 298.67 201.26 301.13 195.97 289.03 C 190.68 276.92 179.91 282.15 171.23 286.23 C 162.55 290.31 161.30 302.01 159.00 310.00 Z"/>
</g>
<g fill="None" fill-opacity="0.0" stroke="#250300" stroke-opacity="1.00" stroke-width="0.3"><path d="
M 212.00 283.00 
C 222.32 285.09 218.27 307.43 218.00 317.00 C 217.73 326.57 220.25 347.86 218.00 358.00
C 222.98 352.61 217.24 337.47 219.00 330.00 C 220.76 322.53 217.94 309.61 219.00 302.00 C 220.06 294.39 219.68 283.38 212.00 283.00 Z"/>
</g>
<g fill="None" fill-opacity="0.0" stroke="#360D00" stroke-opacity="1.00" stroke-width="0.3"><path d="
M 306.00 287.00 
C 311.12 276.77 324.59 286.45 322.00 296.00 C 319.41 305.55 323.11 319.04 323.00 328.00
C 329.62 323.02 334.34 312.54 342.00 309.00
C 350.22 305.20 356.45 313.36 353.00 321.00
C 350.60 326.31 343.54 329.73 340.00 334.00
C 340.00 337.00 346.45 340.57 347.25 343.75 C 348.06 346.93 354.13 350.10 355.00 353.00
C 353.10 345.88 335.58 334.44 346.75 328.75 C 357.92 323.06 357.57 307.60 346.00 307.00 C 334.43 306.40 333.21 322.85 323.00 325.00
C 323.00 314.12 323.01 301.74 322.99 291.01 C 322.98 280.28 307.59 279.37 306.00 287.00 Z"/>
</g>
<g fill="None" fill-opacity="0.0" stroke="#F7830F" stroke-opacity="1.00" stroke-width="0.3"><path d="
M 201.00 288.00 
C 200.80 288.40 201.00 289.00 201.00 289.00
C 201.00 300.21 200.05 311.83 201.00 323.00 C 201.95 334.17 198.58 347.09 201.00 358.00
C 203.87 365.77 212.74 365.90 217.00 359.00
C 217.20 358.68 217.76 358.26 218.00 358.00
C 220.25 347.86 217.73 326.57 218.00 317.00 C 218.27 307.43 222.32 285.09 212.00 283.00
C 207.24 282.77 203.30 283.29 201.00 288.00 Z"/>
</g>
<g fill="None" fill-opacity="0.0" stroke="#270600" stroke-opacity="1.00" stroke-width="0.3"><path d="
M 226.00 289.00 
C 230.80 280.57 244.14 284.17 244.00 294.00 C 243.85 303.83 230.63 308.36 226.00 298.00
C 222.85 301.78 230.46 304.21 232.00 307.00
C 223.03 310.30 224.16 321.80 225.00 330.00 C 225.84 338.20 222.58 350.76 226.00 358.00
C 222.61 346.83 229.28 333.27 226.00 322.00 C 222.72 310.73 238.34 301.68 243.00 314.00
C 245.19 319.78 244.14 328.33 244.00 335.00 C 243.86 341.67 245.45 351.25 243.00 357.00
C 243.00 357.50 243.18 358.58 243.00 359.00
C 247.05 351.23 244.37 337.88 245.00 329.00 C 245.63 320.12 246.86 307.84 236.00 307.00
C 243.13 303.71 248.21 296.32 244.30 288.70 C 240.40 281.07 229.50 280.98 226.00 289.00 Z"/>
</g>
<g fill="None" fill-opacity="0.0" stroke="#F78310" stroke-opacity="1.00" stroke-width="0.3"><path d="
M 306.00 287.00 
C 303.49 299.04 304.82 317.88 305.00 330.00 C 305.18 342.12 299.57 363.51 315.00 364.00
C 326.27 361.92 317.39 346.62 327.00 344.00
C 330.83 348.94 335.62 353.42 338.00 359.00
C 344.52 364.57 357.77 366.19 355.00 353.00
C 354.13 350.10 348.06 346.93 347.25 343.75 C 346.45 340.57 340.00 337.00 340.00 334.00
C 340.00 329.51 351.08 324.56 353.00 321.00
C 356.45 313.36 350.22 305.20 342.00 309.00
C 334.70 313.02 330.72 324.20 323.00 328.00
C 323.11 319.04 319.41 305.55 322.00 296.00 C 324.59 286.45 311.12 276.77 306.00 287.00 Z"/>
</g>
<g fill="None" fill-opacity="0.0" stroke="#F78310" stroke-opacity="1.00" stroke-width="0.3"><path d="
M 159.00 310.00 
C 159.00 310.00 158.48 309.91 158.00 310.00
C 148.56 311.84 151.98 322.65 158.00 326.00
C 159.33 326.00 160.67 326.00 162.00 326.00
C 165.53 335.68 155.18 358.47 167.00 364.00
C 185.38 369.17 177.54 334.78 179.00 326.00
C 182.33 326.00 185.67 326.00 189.00 326.00
C 191.32 324.92 193.16 322.34 194.00 320.00
C 194.77 315.62 192.55 311.55 189.00 310.00
C 185.90 309.15 182.16 310.64 179.00 310.00
C 179.28 308.72 178.24 306.50 180.00 306.00
C 181.90 295.99 190.70 304.39 194.67 295.67 C 198.64 286.95 188.88 283.43 182.00 284.00 C 175.12 284.58 170.40 288.79 165.92 292.92 C 161.44 297.05 164.18 310.07 159.00 310.00 Z"/>
</g>
<g fill="None" fill-opacity="0.0" stroke="#F08214" stroke-opacity="1.00" stroke-width="0.3"><path d="
M 226.00 289.00 
C 224.60 292.20 225.66 294.95 226.00 298.00
C 230.63 308.36 243.85 303.83 244.00 294.00 C 244.14 284.17 230.80 280.57 226.00 289.00 Z"/>
</g>
<g fill="None" fill-opacity="0.0" stroke="#F8F8F8" stroke-opacity="1.00" stroke-width="0.3"><path d="
M 378.00 333.00 
C 380.27 329.75 391.24 332.83 395.00 332.00
C 409.90 322.03 387.36 316.95 378.00 320.00
C 376.22 307.26 379.26 297.45 393.78 299.22 C 408.29 300.99 399.81 283.27 389.00 286.00 C 378.19 288.73 370.33 290.29 366.78 300.78 C 363.22 311.27 365.00 325.29 365.00 335.00 C 365.00 344.71 360.85 364.96 372.92 363.92 C 385.00 362.88 373.78 339.03 378.00 333.00 Z"/>
</g>
<g fill="None" fill-opacity="0.0" stroke="#F1F1F0" stroke-opacity="1.00" stroke-width="0.3"><path d="
M 420.00 286.00 
C 410.06 283.33 404.84 297.52 414.33 301.67 C 423.82 305.82 429.60 288.58 420.00 286.00 Z"/>
</g>
<g fill="None" fill-opacity="0.0" stroke="#200200" stroke-opacity="1.00" stroke-width="0.3"><path d="
M 217.00 359.00 
C 212.74 365.90 203.87 365.77 201.00 358.00
C 198.73 351.86 199.91 343.06 200.00 336.00 C 200.09 328.94 199.07 318.85 200.00 312.00 C 200.93 305.15 197.15 294.21 201.00 289.00
C 201.00 289.00 200.80 288.40 201.00 288.00
C 196.05 289.06 200.10 303.14 199.00 308.00 C 197.90 312.86 199.82 322.96 199.00 329.00 C 198.18 335.04 200.08 344.64 199.00 351.00 C 197.92 357.36 200.81 362.56 205.93 365.07 C 211.04 367.59 218.31 363.37 217.00 359.00 Z"/>
</g>
<g fill="None" fill-opacity="0.0" stroke="#8E4D02" stroke-opacity="1.00" stroke-width="0.3"><path d="
M 201.00 358.00 
C 198.58 347.09 201.95 334.17 201.00 323.00 C 200.05 311.83 201.00 300.21 201.00 289.00
C 197.15 294.21 200.93 305.15 200.00 312.00 C 199.07 318.85 200.09 328.94 200.00 336.00 C 199.91 343.06 198.73 351.86 201.00 358.00 Z"/>
</g>
<g fill="None" fill-opacity="0.0" stroke="#793E05" stroke-opacity="1.00" stroke-width="0.3"><path d="
M 189.00 310.00 
C 186.98 307.78 182.84 309.59 180.00 309.00
C 179.87 308.02 180.16 306.97 180.00 306.00
C 178.24 306.50 179.28 308.72 179.00 310.00
C 182.16 310.64 185.90 309.15 189.00 310.00 Z"/>
</g>
<g fill="None" fill-opacity="0.0" stroke="#350D00" stroke-opacity="1.00" stroke-width="0.3"><path d="
M 252.00 325.00 
C 256.19 316.04 263.79 310.28 273.00 308.00
C 276.29 307.18 278.79 307.34 282.00 308.00
C 288.53 309.35 303.28 313.33 297.69 323.69 C 292.10 334.05 281.53 321.59 274.00 325.00
C 280.35 329.89 301.45 331.71 299.97 319.03 C 298.50 306.34 281.90 305.87 272.67 306.67 C 263.45 307.47 253.47 317.35 252.00 325.00 Z"/>
</g>
<g fill="None" fill-opacity="0.0" stroke="#7B410B" stroke-opacity="1.00" stroke-width="0.3"><path d="
M 273.00 308.00 
C 275.77 307.66 279.22 307.75 282.00 308.00
C 278.79 307.34 276.29 307.18 273.00 308.00 Z"/>
</g>
<g fill="None" fill-opacity="0.0" stroke="#F9FAF9" stroke-opacity="1.00" stroke-width="0.3"><path d="
M 472.00 330.00 
C 473.96 338.84 470.96 349.80 473.00 359.00
C 475.41 365.53 482.58 365.54 485.00 359.00
C 486.96 350.14 485.62 337.09 485.00 328.00
C 484.92 310.42 459.17 299.36 448.00 314.00
C 442.22 303.06 431.51 309.96 434.00 322.00 C 436.49 334.04 431.84 342.96 434.00 356.00 C 436.17 369.03 448.60 362.36 447.00 351.00 C 445.40 339.64 444.51 329.86 451.77 321.77 C 459.03 313.68 470.20 321.86 472.00 330.00 Z"/>
</g>
<g fill="None" fill-opacity="0.0" stroke="#F4810E" stroke-opacity="1.00" stroke-width="0.3"><path d="
M 226.00 358.00 
C 229.11 364.57 239.70 366.79 243.00 359.00
C 243.18 358.58 243.00 357.50 243.00 357.00
C 243.00 343.82 245.93 326.80 243.00 314.00
C 238.34 301.68 222.72 310.73 226.00 322.00 C 229.28 333.27 222.61 346.83 226.00 358.00 Z"/>
</g>
<g fill="None" fill-opacity="0.0" stroke="#F58210" stroke-opacity="1.00" stroke-width="0.3"><path d="
M 252.00 325.00 
C 250.78 327.60 250.58 329.22 250.00 332.00
C 249.73 334.98 250.27 338.02 250.00 341.00
C 251.51 352.13 260.88 362.08 272.00 364.00
C 273.07 364.18 274.38 364.86 275.00 365.00
C 277.11 365.46 280.86 365.34 283.00 365.00
C 288.19 363.49 298.05 361.69 299.00 354.00 C 299.95 346.32 290.14 343.29 284.00 346.00
C 275.15 349.91 264.27 344.91 267.00 333.00
C 267.63 330.26 271.36 326.19 274.00 325.00
C 281.53 321.59 292.10 334.05 297.69 323.69 C 303.28 313.33 288.53 309.35 282.00 308.00
C 279.22 307.75 275.77 307.66 273.00 308.00
C 263.79 310.28 256.19 316.04 252.00 325.00 Z"/>
</g>
<g fill="None" fill-opacity="0.0" stroke="#F5F6F6" stroke-opacity="1.00" stroke-width="0.3"><path d="
M 423.00 358.00 
C 424.16 351.12 423.00 343.00 423.00 336.00 C 423.00 329.00 424.16 320.88 423.00 314.00
C 419.32 301.87 408.67 311.26 410.00 321.00 C 411.33 330.74 411.03 342.18 410.00 352.00 C 408.97 361.82 419.42 369.78 423.00 358.00 Z"/>
</g>
<g fill="None" fill-opacity="0.0" stroke="#2D0A00" stroke-opacity="1.00" stroke-width="0.3"><path d="
M 158.00 326.00 
C 151.98 322.65 148.56 311.84 158.00 310.00
C 154.62 307.53 151.06 312.75 151.00 318.00 C 150.94 323.25 154.24 324.92 158.00 326.00 Z"/>
</g>
<g fill="None" fill-opacity="0.0" stroke="#7A3F0A" stroke-opacity="1.00" stroke-width="0.3"><path d="
M 323.00 328.00 
C 330.72 324.20 334.70 313.02 342.00 309.00
C 334.34 312.54 329.62 323.02 323.00 328.00 Z"/>
</g>
<g fill="None" fill-opacity="0.0" stroke="#843E01" stroke-opacity="1.00" stroke-width="0.3"><path d="
M 243.00 357.00 
C 245.45 351.25 243.86 341.67 244.00 335.00 C 244.14 328.33 245.19 319.78 243.00 314.00
C 245.93 326.80 243.00 343.82 243.00 357.00 Z"/>
</g>
<g fill="None" fill-opacity="0.0" stroke="#676968" stroke-opacity="1.00" stroke-width="0.3"><path d="
M 423.00 358.00 
C 426.15 347.64 426.17 324.43 423.00 314.00
C 424.16 320.88 423.00 329.00 423.00 336.00 C 423.00 343.00 424.16 351.12 423.00 358.00 Z"/>
</g>
<g fill="None" fill-opacity="0.0" stroke="#6A2E00" stroke-opacity="1.00" stroke-width="0.3"><path d="
M 340.00 334.00 
C 343.54 329.73 350.60 326.31 353.00 321.00
C 351.08 324.56 340.00 329.51 340.00 334.00 Z"/>
</g>
<g fill="None" fill-opacity="0.0" stroke="#4F1B00" stroke-opacity="1.00" stroke-width="0.3"><path d="
M 167.00 364.00 
C 186.31 367.56 178.53 339.12 180.00 327.00
C 183.17 327.18 186.48 327.18 189.00 326.00
C 185.67 326.00 182.33 326.00 179.00 326.00
C 177.54 334.78 185.38 369.17 167.00 364.00 Z"/>
</g>
<g fill="None" fill-opacity="0.0" stroke="#787878" stroke-opacity="1.00" stroke-width="0.3"><path d="
M 485.00 359.00 
C 487.95 351.01 486.47 336.23 485.00 328.00
C 485.62 337.09 486.96 350.14 485.00 359.00 Z"/>
</g>
<g fill="None" fill-opacity="0.0" stroke="#888C8B" stroke-opacity="1.00" stroke-width="0.3"><path d="
M 473.00 359.00 
C 470.96 349.80 473.96 338.84 472.00 330.00
C 472.95 339.23 469.92 350.65 473.00 359.00 Z"/>
</g>
<g fill="None" fill-opacity="0.0" stroke="#683908" stroke-opacity="1.00" stroke-width="0.3"><path d="
M 249.00 341.00 
C 249.00 341.05 250.00 341.00 250.00 341.00
C 250.27 338.02 249.73 334.98 250.00 332.00
C 249.47 334.58 248.78 337.70 249.00 341.00 Z"/>
</g>
<g fill="None" fill-opacity="0.0" stroke="#747575" stroke-opacity="1.00" stroke-width="0.3"><path d="
M 378.00 333.00 
C 383.63 332.72 390.08 333.82 395.00 332.00
C 391.24 332.83 380.27 329.75 378.00 333.00 Z"/>
</g>
<g fill="None" fill-opacity="0.0" stroke="#330900" stroke-opacity="1.00" stroke-width="0.3"><path d="
M 284.00 346.00 
C 275.57 348.45 265.71 342.56 267.00 333.00
C 264.27 344.91 275.15 349.91 284.00 346.00 Z"/>
</g>
<g fill="None" fill-opacity="0.0" stroke="#2A0600" stroke-opacity="1.00" stroke-width="0.3"><path d="
M 272.00 364.00 
C 260.88 362.08 251.51 352.13 250.00 341.00
C 250.00 341.00 249.00 341.05 249.00 341.00
C 249.84 353.29 260.51 364.32 272.00 364.00 Z"/>
</g>
<g fill="None" fill-opacity="0.0" stroke="#350C00" stroke-opacity="1.00" stroke-width="0.3"><path d="
M 315.00 364.00 
C 317.56 364.08 324.49 361.53 324.00 356.00 C 323.51 350.47 325.09 343.18 329.75 349.25 C 334.40 355.33 332.73 354.50 338.00 359.00
C 335.62 353.42 330.83 348.94 327.00 344.00
C 317.39 346.62 326.27 361.92 315.00 364.00 Z"/>
</g>
<g fill="None" fill-opacity="0.0" stroke="#260000" stroke-opacity="1.00" stroke-width="0.3"><path d="
M 283.00 365.00 
C 280.86 365.34 277.11 365.46 275.00 365.00
C 276.20 365.74 279.73 365.95 283.00 365.00 Z"/>
</g>
<g fill="#000000" fill-opacity="1.00" stroke="None">
<path d="
M 0.00 640.00 
L 640.00 640.00
L 640.00 0.00
L 0.00 0.00
L 0.00 640.00
M 194.00 320.00 
C 193.16 322.34 191.32 324.92 189.00 326.00
C 186.48 327.18 183.17 327.18 180.00 327.00
C 178.53 339.12 186.31 367.56 167.00 364.00
C 155.18 358.47 165.53 335.68 162.00 326.00
C 160.67 326.00 159.33 326.00 158.00 326.00
C 154.24 324.92 150.94 323.25 151.00 318.00 C 151.06 312.75 154.62 307.53 158.00 310.00
C 158.48 309.91 159.00 310.00 159.00 310.00
C 161.30 302.01 162.55 290.31 171.23 286.23 C 179.91 282.15 190.68 276.92 195.97 289.03 C 201.26 301.13 181.27 298.67 181.00 308.00
C 188.33 305.33 198.18 312.75 194.00 320.00
M 218.00 358.00 
C 217.76 358.26 217.20 358.68 217.00 359.00
C 218.31 363.37 211.04 367.59 205.93 365.07 C 200.81 362.56 197.92 357.36 199.00 351.00 C 200.08 344.64 198.18 335.04 199.00 329.00 C 199.82 322.96 197.90 312.86 199.00 308.00 C 200.10 303.14 196.05 289.06 201.00 288.00
C 203.30 283.29 207.24 282.77 212.00 283.00
C 219.68 283.38 220.06 294.39 219.00 302.00 C 217.94 309.61 220.76 322.53 219.00 330.00 C 217.24 337.47 222.98 352.61 218.00 358.00
M 355.00 353.00 
C 357.77 366.19 344.52 364.57 338.00 359.00
C 332.73 354.50 334.40 355.33 329.75 349.25 C 325.09 343.18 323.51 350.47 324.00 356.00 C 324.49 361.53 317.56 364.08 315.00 364.00
C 299.57 363.51 305.18 342.12 305.00 330.00 C 304.82 317.88 303.49 299.04 306.00 287.00
C 307.59 279.37 322.98 280.28 322.99 291.01 C 323.01 301.74 323.00 314.12 323.00 325.00
C 333.21 322.85 334.43 306.40 346.00 307.00 C 357.57 307.60 357.92 323.06 346.75 328.75 C 335.58 334.44 353.10 345.88 355.00 353.00
M 243.00 359.00 
C 239.70 366.79 229.11 364.57 226.00 358.00
C 222.58 350.76 225.84 338.20 225.00 330.00 C 224.16 321.80 223.03 310.30 232.00 307.00
C 230.46 304.21 222.85 301.78 226.00 298.00
C 225.66 294.95 224.60 292.20 226.00 289.00
C 229.50 280.98 240.40 281.07 244.30 288.70 C 248.21 296.32 243.13 303.71 236.00 307.00
C 246.86 307.84 245.63 320.12 245.00 329.00 C 244.37 337.88 247.05 351.23 243.00 359.00
M 395.00 332.00 
C 390.08 333.82 383.63 332.72 378.00 333.00
C 373.78 339.03 385.00 362.88 372.92 363.92 C 360.85 364.96 365.00 344.71 365.00 335.00 C 365.00 325.29 363.22 311.27 366.78 300.78 C 370.33 290.29 378.19 288.73 389.00 286.00 C 399.81 283.27 408.29 300.99 393.78 299.22 C 379.26 297.45 376.22 307.26 378.00 320.00
C 387.36 316.95 409.90 322.03 395.00 332.00
M 420.00 286.00 
C 429.60 288.58 423.82 305.82 414.33 301.67 C 404.84 297.52 410.06 283.33 420.00 286.00
M 274.00 325.00 
C 271.36 326.19 267.63 330.26 267.00 333.00
C 265.71 342.56 275.57 348.45 284.00 346.00
C 290.14 343.29 299.95 346.32 299.00 354.00 C 298.05 361.69 288.19 363.49 283.00 365.00
C 279.73 365.95 276.20 365.74 275.00 365.00
C 274.38 364.86 273.07 364.18 272.00 364.00
C 260.51 364.32 249.84 353.29 249.00 341.00
C 248.78 337.70 249.47 334.58 250.00 332.00
C 250.58 329.22 250.78 327.60 252.00 325.00
C 253.47 317.35 263.45 307.47 272.67 306.67 C 281.90 305.87 298.50 306.34 299.97 319.03 C 301.45 331.71 280.35 329.89 274.00 325.00
M 485.00 328.00 
C 486.47 336.23 487.95 351.01 485.00 359.00
C 482.58 365.54 475.41 365.53 473.00 359.00
C 469.92 350.65 472.95 339.23 472.00 330.00
C 470.20 321.86 459.03 313.68 451.77 321.77 C 444.51 329.86 445.40 339.64 447.00 351.00 C 448.60 362.36 436.17 369.03 434.00 356.00 C 431.84 342.96 436.49 334.04 434.00 322.00 C 431.51 309.96 442.22 303.06 448.00 314.00
C 459.17 299.36 484.92 310.42 485.00 328.00
M 423.00 314.00 
C 426.17 324.43 426.15 347.64 423.00 358.00
C 419.42 369.78 408.97 361.82 410.00 352.00 C 411.03 342.18 411.33 330.74 410.00 321.00 C 408.67 311.26 419.32 301.87 423.00 314.00 Z"/>
</g>
<g fill="#320C00" fill-opacity="1.00" stroke="None">
<path d="
M 159.00 310.00 
C 164.18 310.07 161.44 297.05 165.92 292.92 C 170.40 288.79 175.12 284.58 182.00 284.00 C 188.88 283.43 198.64 286.95 194.67 295.67 C 190.70 304.39 181.90 295.99 180.00 306.00
C 180.16 306.97 179.87 308.02 180.00 309.00
C 182.84 309.59 186.98 307.78 189.00 310.00
C 192.55 311.55 194.77 315.62 194.00 320.00
C 198.18 312.75 188.33 305.33 181.00 308.00
C 181.27 298.67 201.26 301.13 195.97 289.03 C 190.68 276.92 179.91 282.15 171.23 286.23 C 162.55 290.31 161.30 302.01 159.00 310.00 Z"/>
</g>
<g fill="#250300" fill-opacity="1.00" stroke="None">
<path d="
M 212.00 283.00 
C 222.32 285.09 218.27 307.43 218.00 317.00 C 217.73 326.57 220.25 347.86 218.00 358.00
C 222.98 352.61 217.24 337.47 219.00 330.00 C 220.76 322.53 217.94 309.61 219.00 302.00 C 220.06 294.39 219.68 283.38 212.00 283.00 Z"/>
</g>
<g fill="#360D00" fill-opacity="1.00" stroke="None">
<path d="
M 306.00 287.00 
C 311.12 276.77 324.59 286.45 322.00 296.00 C 319.41 305.55 323.11 319.04 323.00 328.00
C 329.62 323.02 334.34 312.54 342.00 309.00
C 350.22 305.20 356.45 313.36 353.00 321.00
C 350.60 326.31 343.54 329.73 340.00 334.00
C 340.00 337.00 346.45 340.57 347.25 343.75 C 348.06 346.93 354.13 350.10 355.00 353.00
C 353.10 345.88 335.58 334.44 346.75 328.75 C 357.92 323.06 357.57 307.60 346.00 307.00 C 334.43 306.40 333.21 322.85 323.00 325.00
C 323.00 314.12 323.01 301.74 322.99 291.01 C 322.98 280.28 307.59 279.37 306.00 287.00 Z"/>
</g>
<g fill="#F7830F" fill-opacity="1.00" stroke="None">
<path d="
M 201.00 288.00 
C 200.80 288.40 201.00 289.00 201.00 289.00
C 201.00 300.21 200.05 311.83 201.00 323.00 C 201.95 334.17 198.58 347.09 201.00 358.00
C 203.87 365.77 212.74 365.90 217.00 359.00
C 217.20 358.68 217.76 358.26 218.00 358.00
C 220.25 347.86 217.73 326.57 218.00 317.00 C 218.27 307.43 222.32 285.09 212.00 283.00
C 207.24 282.77 203.30 283.29 201.00 288.00 Z"/>
</g>
<g fill="#270600" fill-opacity="1.00" stroke="None">
<path d="
M 226.00 289.00 
C 230.80 280.57 244.14 284.17 244.00 294.00 C 243.85 303.83 230.63 308.36 226.00 298.00
C 222.85 301.78 230.46 304.21 232.00 307.00
C 223.03 310.30 224.16 321.80 225.00 330.00 C 225.84 338.20 222.58 350.76 226.00 358.00
C 222.61 346.83 229.28 333.27 226.00 322.00 C 222.72 310.73 238.34 301.68 243.00 314.00
C 245.19 319.78 244.14 328.33 244.00 335.00 C 243.86 341.67 245.45 351.25 243.00 357.00
C 243.00 357.50 243.18 358.58 243.00 359.00
C 247.05 351.23 244.37 337.88 245.00 329.00 C 245.63 320.12 246.86 307.84 236.00 307.00
C 243.13 303.71 248.21 296.32 244.30 288.70 C 240.40 281.07 229.50 280.98 226.00 289.00 Z"/>
</g>
<g fill="#F78310" fill-opacity="1.00" stroke="None">
<path d="
M 306.00 287.00 
C 303.49 299.04 304.82 317.88 305.00 330.00 C 305.18 342.12 299.57 363.51 315.00 364.00
C 326.27 361.92 317.39 346.62 327.00 344.00
C 330.83 348.94 335.62 353.42 338.00 359.00
C 344.52 364.57 357.77 366.19 355.00 353.00
C 354.13 350.10 348.06 346.93 347.25 343.75 C 346.45 340.57 340.00 337.00 340.00 334.00
C 340.00 329.51 351.08 324.56 353.00 321.00
C 356.45 313.36 350.22 305.20 342.00 309.00
C 334.70 313.02 330.72 324.20 323.00 328.00
C 323.11 319.04 319.41 305.55 322.00 296.00 C 324.59 286.45 311.12 276.77 306.00 287.00 Z"/>
</g>
<g fill="#F78310" fill-opacity="1.00" stroke="None">
<path d="
M 159.00 310.00 
C 159.00 310.00 158.48 309.91 158.00 310.00
C 148.56 311.84 151.98 322.65 158.00 326.00
C 159.33 326.00 160.67 326.00 162.00 326.00
C 165.53 335.68 155.18 358.47 167.00 364.00
C 185.38 369.17 177.54 334.78 179.00 326.00
C 182.33 326.00 185.67 326.00 189.00 326.00
C 191.32 324.92 193.16 322.34 194.00 320.00
C 194.77 315.62 192.55 311.55 189.00 310.00
C 185.90 309.15 182.16 310.64 179.00 310.00
C 179.28 308.72 178.24 306.50 180.00 306.00
C 181.90 295.99 190.70 304.39 194.67 295.67 C 198.64 286.95 188.88 283.43 182.00 284.00 C 175.12 284.58 170.40 288.79 165.92 292.92 C 161.44 297.05 164.18 310.07 159.00 310.00 Z"/>
</g>
<g fill="#F08214" fill-opacity="1.00" stroke="None">
<path d="
M 226.00 289.00 
C 224.60 292.20 225.66 294.95 226.00 298.00
C 230.63 308.36 243.85 303.83 244.00 294.00 C 244.14 284.17 230.80 280.57 226.00 289.00 Z"/>
</g>
<g fill="#F8F8F8" fill-opacity="1.00" stroke="None">
<path d="
M 378.00 333.00 
C 380.27 329.75 391.24 332.83 395.00 332.00
C 409.90 322.03 387.36 316.95 378.00 320.00
C 376.22 307.26 379.26 297.45 393.78 299.22 C 408.29 300.99 399.81 283.27 389.00 286.00 C 378.19 288.73 370.33 290.29 366.78 300.78 C 363.22 311.27 365.00 325.29 365.00 335.00 C 365.00 344.71 360.85 364.96 372.92 363.92 C 385.00 362.88 373.78 339.03 378.00 333.00 Z"/>
</g>
<g fill="#F1F1F0" fill-opacity="1.00" stroke="None">
<path d="
M 420.00 286.00 
C 410.06 283.33 404.84 297.52 414.33 301.67 C 423.82 305.82 429.60 288.58 420.00 286.00 Z"/>
</g>
<g fill="#200200" fill-opacity="1.00" stroke="None">
<path d="
M 217.00 359.00 
C 212.74 365.90 203.87 365.77 201.00 358.00
C 198.73 351.86 199.91 343.06 200.00 336.00 C 200.09 328.94 199.07 318.85 200.00 312.00 C 200.93 305.15 197.15 294.21 201.00 289.00
C 201.00 289.00 200.80 288.40 201.00 288.00
C 196.05 289.06 200.10 303.14 199.00 308.00 C 197.90 312.86 199.82 322.96 199.00 329.00 C 198.18 335.04 200.08 344.64 199.00 351.00 C 197.92 357.36 200.81 362.56 205.93 365.07 C 211.04 367.59 218.31 363.37 217.00 359.00 Z"/>
</g>
<g fill="#8E4D02" fill-opacity="1.00" stroke="None">
<path d="
M 201.00 358.00 
C 198.58 347.09 201.95 334.17 201.00 323.00 C 200.05 311.83 201.00 300.21 201.00 289.00
C 197.15 294.21 200.93 305.15 200.00 312.00 C 199.07 318.85 200.09 328.94 200.00 336.00 C 199.91 343.06 198.73 351.86 201.00 358.00 Z"/>
</g>
<g fill="#793E05" fill-opacity="1.00" stroke="None">
<path d="
M 189.00 310.00 
C 186.98 307.78 182.84 309.59 180.00 309.00
C 179.87 308.02 180.16 306.97 180.00 306.00
C 178.24 306.50 179.28 308.72 179.00 310.00
C 182.16 310.64 185.90 309.15 189.00 310.00 Z"/>
</g>
<g fill="#350D00" fill-opacity="1.00" stroke="None">
<path d="
M 252.00 325.00 
C 256.19 316.04 263.79 310.28 273.00 308.00
C 276.29 307.18 278.79 307.34 282.00 308.00
C 288.53 309.35 303.28 313.33 297.69 323.69 C 292.10 334.05 281.53 321.59 274.00 325.00
C 280.35 329.89 301.45 331.71 299.97 319.03 C 298.50 306.34 281.90 305.87 272.67 306.67 C 263.45 307.47 253.47 317.35 252.00 325.00 Z"/>
</g>
<g fill="#7B410B" fill-opacity="1.00" stroke="None">
<path d="
M 273.00 308.00 
C 275.77 307.66 279.22 307.75 282.00 308.00
C 278.79 307.34 276.29 307.18 273.00 308.00 Z"/>
</g>
<g fill="#F9FAF9" fill-opacity="1.00" stroke="None">
<path d="
M 472.00 330.00 
C 473.96 338.84 470.96 349.80 473.00 359.00
C 475.41 365.53 482.58 365.54 485.00 359.00
C 486.96 350.14 485.62 337.09 485.00 328.00
C 484.92 310.42 459.17 299.36 448.00 314.00
C 442.22 303.06 431.51 309.96 434.00 322.00 C 436.49 334.04 431.84 342.96 434.00 356.00 C 436.17 369.03 448.60 362.36 447.00 351.00 C 445.40 339.64 444.51 329.86 451.77 321.77 C 459.03 313.68 470.20 321.86 472.00 330.00 Z"/>
</g>
<g fill="#F4810E" fill-opacity="1.00" stroke="None">
<path d="
M 226.00 358.00 
C 229.11 364.57 239.70 366.79 243.00 359.00
C 243.18 358.58 243.00 357.50 243.00 357.00
C 243.00 343.82 245.93 326.80 243.00 314.00
C 238.34 301.68 222.72 310.73 226.00 322.00 C 229.28 333.27 222.61 346.83 226.00 358.00 Z"/>
</g>
<g fill="#F58210" fill-opacity="1.00" stroke="None">
<path d="
M 252.00 325.00 
C 250.78 327.60 250.58 329.22 250.00 332.00
C 249.73 334.98 250.27 338.02 250.00 341.00
C 251.51 352.13 260.88 362.08 272.00 364.00
C 273.07 364.18 274.38 364.86 275.00 365.00
C 277.11 365.46 280.86 365.34 283.00 365.00
C 288.19 363.49 298.05 361.69 299.00 354.00 C 299.95 346.32 290.14 343.29 284.00 346.00
C 275.15 349.91 264.27 344.91 267.00 333.00
C 267.63 330.26 271.36 326.19 274.00 325.00
C 281.53 321.59 292.10 334.05 297.69 323.69 C 303.28 313.33 288.53 309.35 282.00 308.00
C 279.22 307.75 275.77 307.66 273.00 308.00
C 263.79 310.28 256.19 316.04 252.00 325.00 Z"/>
</g>
<g fill="#F5F6F6" fill-opacity="1.00" stroke="None">
<path d="
M 423.00 358.00 
C 424.16 351.12 423.00 343.00 423.00 336.00 C 423.00 329.00 424.16 320.88 423.00 314.00
C 419.32 301.87 408.67 311.26 410.00 321.00 C 411.33 330.74 411.03 342.18 410.00 352.00 C 408.97 361.82 419.42 369.78 423.00 358.00 Z"/>
</g>
<g fill="#2D0A00" fill-opacity="1.00" stroke="None">
<path d="
M 158.00 326.00 
C 151.98 322.65 148.56 311.84 158.00 310.00
C 154.62 307.53 151.06 312.75 151.00 318.00 C 150.94 323.25 154.24 324.92 158.00 326.00 Z"/>
</g>
<g fill="#7A3F0A" fill-opacity="1.00" stroke="None">
<path d="
M 323.00 328.00 
C 330.72 324.20 334.70 313.02 342.00 309.00
C 334.34 312.54 329.62 323.02 323.00 328.00 Z"/>
</g>
<g fill="#843E01" fill-opacity="1.00" stroke="None">
<path d="
M 243.00 357.00 
C 245.45 351.25 243.86 341.67 244.00 335.00 C 244.14 328.33 245.19 319.78 243.00 314.00
C 245.93 326.80 243.00 343.82 243.00 357.00 Z"/>
</g>
<g fill="#676968" fill-opacity="1.00" stroke="None">
<path d="
M 423.00 358.00 
C 426.15 347.64 426.17 324.43 423.00 314.00
C 424.16 320.88 423.00 329.00 423.00 336.00 C 423.00 343.00 424.16 351.12 423.00 358.00 Z"/>
</g>
<g fill="#6A2E00" fill-opacity="1.00" stroke="None">
<path d="
M 340.00 334.00 
C 343.54 329.73 350.60 326.31 353.00 321.00
C 351.08 324.56 340.00 329.51 340.00 334.00 Z"/>
</g>
<g fill="#4F1B00" fill-opacity="1.00" stroke="None">
<path d="
M 167.00 364.00 
C 186.31 367.56 178.53 339.12 180.00 327.00
C 183.17 327.18 186.48 327.18 189.00 326.00
C 185.67 326.00 182.33 326.00 179.00 326.00
C 177.54 334.78 185.38 369.17 167.00 364.00 Z"/>
</g>
<g fill="#787878" fill-opacity="1.00" stroke="None">
<path d="
M 485.00 359.00 
C 487.95 351.01 486.47 336.23 485.00 328.00
C 485.62 337.09 486.96 350.14 485.00 359.00 Z"/>
</g>
<g fill="#888C8B" fill-opacity="1.00" stroke="None">
<path d="
M 473.00 359.00 
C 470.96 349.80 473.96 338.84 472.00 330.00
C 472.95 339.23 469.92 350.65 473.00 359.00 Z"/>
</g>
<g fill="#683908" fill-opacity="1.00" stroke="None">
<path d="
M 249.00 341.00 
C 249.00 341.05 250.00 341.00 250.00 341.00
C 250.27 338.02 249.73 334.98 250.00 332.00
C 249.47 334.58 248.78 337.70 249.00 341.00 Z"/>
</g>
<g fill="#747575" fill-opacity="1.00" stroke="None">
<path d="
M 378.00 333.00 
C 383.63 332.72 390.08 333.82 395.00 332.00
C 391.24 332.83 380.27 329.75 378.00 333.00 Z"/>
</g>
<g fill="#330900" fill-opacity="1.00" stroke="None">
<path d="
M 284.00 346.00 
C 275.57 348.45 265.71 342.56 267.00 333.00
C 264.27 344.91 275.15 349.91 284.00 346.00 Z"/>
</g>
<g fill="#2A0600" fill-opacity="1.00" stroke="None">
<path d="
M 272.00 364.00 
C 260.88 362.08 251.51 352.13 250.00 341.00
C 250.00 341.00 249.00 341.05 249.00 341.00
C 249.84 353.29 260.51 364.32 272.00 364.00 Z"/>
</g>
<g fill="#350C00" fill-opacity="1.00" stroke="None">
<path d="
M 315.00 364.00 
C 317.56 364.08 324.49 361.53 324.00 356.00 C 323.51 350.47 325.09 343.18 329.75 349.25 C 334.40 355.33 332.73 354.50 338.00 359.00
C 335.62 353.42 330.83 348.94 327.00 344.00
C 317.39 346.62 326.27 361.92 315.00 364.00 Z"/>
</g>
<g fill="#260000" fill-opacity="1.00" stroke="None">
<path d="
M 283.00 365.00 
C 280.86 365.34 277.11 365.46 275.00 365.00
C 276.20 365.74 279.73 365.95 283.00 365.00 Z"/>
</g>
</svg>